<svg width="512" height="512" viewBox="0 0 512 512" fill="none" xmlns="http://www.w3.org/2000/svg">
<rect width="512" height="512" rx="128" fill="url(#gradient)"/>
<circle cx="256" cy="200" r="60" fill="white" fill-opacity="0.9"/>
<rect x="180" y="280" width="152" height="8" rx="4" fill="white" fill-opacity="0.8"/>
<rect x="200" y="300" width="112" height="6" rx="3" fill="white" fill-opacity="0.7"/>
<rect x="220" y="318" width="72" height="4" rx="2" fill="white" fill-opacity="0.6"/>
<path d="M150 350c0-10 8-18 18-18h176c10 0 18 8 18 18v80c0 10-8 18-18 18H168c-10 0-18-8-18-18v-80z" fill="white" fill-opacity="0.2"/>
<circle cx="180" cy="380" r="8" fill="#22c55e"/>
<defs>
<linearGradient id="gradient" x1="0" y1="0" x2="1" y2="1">
<stop offset="0%" stop-color="#3b82f6"/>
<stop offset="100%" stop-color="#1d4ed8"/>
</linearGradient>
</defs>
</svg>